<?xml version="1.0" encoding="utf-8"?>
<!-- Generator: Adobe Illustrator 21.0.2, SVG Export Plug-In . SVG Version: 6.00 Build 0)  -->
<svg version="1.1" id="Layer_1" xmlns="http://www.w3.org/2000/svg" xmlns:xlink="http://www.w3.org/1999/xlink" x="0px" y="0px"
	 viewBox="0 0 720 198.8" style="enable-background:new 0 0 720 198.8;" xml:space="preserve">
<style type="text/css">
	.st0{fill:none;stroke:#00AEEF;stroke-width:5;stroke-miterlimit:10;}
	.st1{fill:#954D9E;}
	.st2{font-family:'Aloha';}
	.st3{font-size:133.1687px;}
</style>
<g>
	<g>
		<path class="st0" d="M23.2,161.4c17.3,16.9,42.3,23,64.4,11.7c14.3-7.4,25.3-20.2,33.7-33.7c11.3-18.3,16.6-39.1,26.6-57.9
			c14.6-27.6,38.1-51.3,68.2-61.3c22.3-7.4,48.8-7,68.4,7.3c21.1,15.3,26,41.9,21.1,66.3c-0.8,4-1.8,7.9-3,11.8"/>
		<path class="st0" d="M312.7,173.2c6.7-4,12.7-9.2,17.9-15"/>
		<path class="st0" d="M302.6,105.3c0-74.7-80.2-69.9-81.2,0c-0.7,50.1,47.1,94.1,91.2,67.9"/>
	</g>
	<text transform="matrix(1 0 0 1 364.4961 181.0434)" class="st1 st2 st3">Olakai</text>
</g>
</svg>
