<svg xmlns="http://www.w3.org/2000/svg" viewBox="0 0 160.22 160.2"><defs><style>.cls-1{fill:#6f6f6f;}.cls-2{fill:#fff;}.cls-3{fill:#636363;}.cls-4{fill:#5d5d5d;}</style></defs><title>part1 </title><g id="Isolation_Mode" data-name="Isolation Mode"><path class="cls-1" d="M288.56,280.82H432.84c6.88,1.63,7.39,2.28,7.39,9.68q0,69.49,0,139a16.28,16.28,0,0,1,0,2.46c-1,6.72-2.33,7.72-8.51,7.84-13,.25-26.1.09-39.16.09-2.16,0-3.64-.36-3.63-2.87,0-19.58-.36-39.16.22-58.74,0-.47,0,.12.12-.32.7-1.77,2.29-1.7,3.76-1.73,3.38-.08,6.76,0,10.15,0a8,8,0,0,0,5-1.26,6.3,6.3,0,0,0,2.33-4.55c.37-3,.88-6,1.09-9,.25-3.73-.94-5.2-4.68-5.45-4.31-.28-8.64-.05-13-.12s-5-.59-5-5.08c0-4.21-.06-8.41,0-12.62.11-8,3.82-11.89,11.92-12.54,2.76,0,5.52,0,8.29,0a5.1,5.1,0,0,0,3.53-1.14c2.83-4.83,1.75-9.93.83-14.92-.35-1.87-2.36-2.58-4.17-2.66-7.23-.34-14.49-.94-21.6,1A24.2,24.2,0,0,0,370,324.22a62.24,62.24,0,0,0-2,10.3c-.76,6.42.2,12.88-.56,19.29-.59,1.86-2.18,1.88-3.69,1.93-2.56.09-5.12,0-7.68,0-7.72,0-8.72,1-8.75,8.6,0,2.09,0,4.19.07,6.28a5.48,5.48,0,0,0,1.82,4.36c1.71,1.32,3.72,1.16,5.7,1.18,2.91,0,5.82-.11,8.72.08,1.37.09,2.85,0,3.65,1.52a14.63,14.63,0,0,1,.41,4.53q.07,26.15,0,52.31c0,1.73.67,3.83-1.5,4.92-3.59.82-7.24.3-10.84.31-21.48.08-43,0-64.45,0-7.87,0-9.6-1.55-9.66-9.9-.16-23.44-.06-46.87-.06-70.31q0-34.45,0-68.9a13.47,13.47,0,0,1,0-2.81C282.45,282.23,281.52,282.49,288.56,280.82Z" transform="translate(-280.74 -280.44)"/><path class="cls-2" d="M288.56,280.82c-5.43,1.94-7.11,5.94-7.1,11.49q.16,67.67.06,135.35c0,8.43,3,11.53,11.35,11.52q36.21,0,72.42-.11c.59-.85.33-1.82.33-2.73,0-19.06,0-38.12,0-57.18-.65-1.54-2-.78-3-.83-5.67-.27-11.36.39-17-.38-.07-7.14-.13-14.29-.23-21.43,0-2,1-2.61,2.85-2.59q7,.08,14.06,0c1.24,0,2.6.42,3.68-.62a115.39,115.39,0,0,1,.12-20.38c.43-2.06.82-4.12,1.28-6.18,2.8-12.44,12.12-20.78,24.8-21.8a144.78,144.78,0,0,1,20,.16c2.42.14,3.63.95,3.5,3.59-.3,6.19.44,12.4-.41,18.59a65.39,65.39,0,0,1-14,.09c-7.06.25-10.1,3-10.48,10-.25,4.55,0,9.13-.14,13.7-.08,2.43,1,3,3.18,2.92,5.85-.08,11.71.07,17.56-.06,2.56-.05,3.27.83,2.8,3.31-1.3,6.88-1.27,14-3.13,20.77-5.36.7-10.75.1-16.12.33-1.38.06-2.81-.36-4.14.32,0,19.22,0,38.43-.15,57.65,0,2.41,1,2.94,3.15,2.92,12.19-.07,24.37,0,36.56-.06,6.06,0,9.56-3.6,9.56-9.74q.05-69.43,0-138.86c0-5-2.58-8-7-9.73,2.58,0,6.17-1,7.46.28s.28,4.88.28,7.46q0,74.6.07,149.21c0,2.41-.47,2.89-2.88,2.88q-77.07-.13-154.13,0c-2.41,0-2.89-.47-2.88-2.88q.13-76.71,0-153.43c0-3,.61-4.06,3.61-3.56A25.71,25.71,0,0,0,288.56,280.82Z" transform="translate(-280.74 -280.44)"/><path class="cls-3" d="M366,378.64q.07,29.13.12,58.27c0,.78.13,1.68-.8,2.14l0-60.38C365.47,378.36,365.71,378.33,366,378.64Z" transform="translate(-280.74 -280.44)"/><path class="cls-3" d="M366,332.91l-.12,20.38A61.17,61.17,0,0,1,366,332.91Z" transform="translate(-280.74 -280.44)"/><path class="cls-4" d="M366,378.64l-.73,0c-6.55-.41-13.16.75-19.67-.72,5.85,0,11.69-.05,17.54,0C364.08,377.94,365.24,377.5,366,378.64Z" transform="translate(-280.74 -280.44)"/><path class="cls-4" d="M390.73,378.63c1.61-1.37,3.54-.65,5.31-.68,5-.09,10,0,15,0C404.28,379.37,397.49,378.33,390.73,378.63Z" transform="translate(-280.74 -280.44)"/><path class="cls-4" d="M401.2,327.36l14-.09A33.15,33.15,0,0,1,401.2,327.36Z" transform="translate(-280.74 -280.44)"/></g></svg>