<svg id="Layer_1" data-name="Layer 1" xmlns="http://www.w3.org/2000/svg" viewBox="0 0 277.56 278.1"><defs><style>.cls-1{fill:#fff;}.cls-2{fill:#727272;}.cls-3{fill:#7f7f7f;}.cls-4{fill:#7a7a7a;}.cls-5{fill:#787878;}.cls-6{fill:gray;}.cls-7{fill:#7b7b7b;}.cls-8{fill:#636363;}.cls-9{fill:#747474;}.cls-10{fill:#838383;}.cls-11{fill:#797979;}.cls-12{fill:#b7b7b7;}.cls-13{fill:silver;}.cls-14{fill:#aeaeae;}.cls-15{fill:#6f6f6f;}.cls-16{fill:#6a6a6a;}.cls-17{fill:#696969;}.cls-18{fill:#676767;}.cls-19{fill:#a5a5a5;}.cls-20{fill:#9a9a9a;}.cls-21{fill:#858585;}.cls-22{fill:#848484;}.cls-23{fill:#909090;}.cls-24{fill:#707070;}.cls-25{fill:#8c8c8c;}.cls-26{fill:#9c9c9c;}.cls-27{fill:#939393;}.cls-28{fill:#acacac;}.cls-29{fill:#606060;}.cls-30{fill:#5c5c5c;}.cls-31{fill:#737373;}.cls-32{fill:#7d7d7d;}.cls-33{fill:#757575;}.cls-34{fill:#6c6c6c;}.cls-35{fill:#666;}</style></defs><title>part1</title><path class="cls-1" d="M269,387.3q0-68.4-.06-136.8c0-2,.52-2.32,2.39-2.31q136.39.08,272.78,0c1.85,0,2.4.25,2.4,2.3q-.1,136.8,0,273.59c0,1.91-.46,2.18-2.25,2.18q-136.53-.08-273.05,0c-2.22,0-2.23-.77-2.23-2.47Q269,455.57,269,387.3Z" transform="translate(-268.96 -248.19)"/><path class="cls-2" d="M313.44,378a326.48,326.48,0,0,1,1.11-36.86c.87-10,3.76-19.49,10.14-27.59,3.1-1,6.22.28,9.34-.1a30.44,30.44,0,0,0,5.86-.77,5.1,5.1,0,0,1,1.06-.2c4.47-.46,5.72,1.21,4.13,5.5-8.77,7.74-12,17.77-12.6,29.13-1,19.72-.21,39.45-.45,59.18-.07,5.76-.24,11.53.17,17.29a2.13,2.13,0,0,1-.89,2.12c-1.73.17-2-1-2.16-2.31-.7-4.91-.28-9.86-.34-14.78s-.09-10.05.05-15.07c-.15-2.59,0-5.2-.09-7.8-.06-1.67-.85-2.5-2.39-1.41-2.44,1.71-5.46,2.12-7.91,3.82-1.69,1.17-3.76.11-4.32-2-.43-1.58-.15-3.2-.25-4.8C313.82,380.3,314.23,379.09,313.44,378Z" transform="translate(-268.96 -248.19)"/><path class="cls-3" d="M502,351.51c.12,7.41,1,14.81.57,22.23a1.86,1.86,0,0,0-.21,1c.14,10.45-.92,20.89-.52,31.35a6.06,6.06,0,0,1-.22,2.38c-.35,1-.65,1.93-1.87,1.92a2.08,2.08,0,0,1-2.08-1.78c-.37-1.39-.67-2.8-1-4.21-.12-.62,0-1.47-.4-1.82-2.91-2.72-3.18-7.16-6.36-9.68-.61-.49-1.17-1.32-2.08-.83-.73.38-.65,1.23-.66,1.94-.05,3.6,0,7.2-.06,10.8,0,1.39.16,3-1.54,3.7a1.38,1.38,0,0,1-.88-.4c-1-1.46-.73-3.13-.73-4.72q-.05-19,0-38.09c.22-4.66.56-9.33-.06-14-.66-3.27-.36-6.62-.88-9.89.39-3.38,1.45-4.22,4.7-4,2.79.21,5.5.88,8.28,1.14a2.57,2.57,0,0,1,2.42,2.16,12,12,0,0,0,2.35,4.79,4,4,0,0,1,.73,2.76A6.07,6.07,0,0,0,502,351.51Z" transform="translate(-268.96 -248.19)"/><path class="cls-4" d="M344.28,317.15c1.35-3,.14-3.72-3.15-3.19a76,76,0,0,1-8.47,1c-2.72.12-5.47.07-8-1.31a28.18,28.18,0,0,1,5.94-6.56c3.94-.8,7.84-1.82,11.93-1.74,9.19.17,18.28-.89,27.42-1.77,7.78-.76,15.56-1.45,23.3-2.5,11.3-1.53,22.53-3.57,33.82-5.22,4.66-.68,9.3-2.11,14.07-2.52a9.87,9.87,0,0,0,3.6-.61,78.92,78.92,0,0,1,17.32,2.16c.93,2.16-.68,5.3-3.17,5.08-3.51-.31-6.39,1.61-9.71,1.74-3.7.14-7.17,1.92-10.71,2.37-6.82.87-13.44,3.42-20.46,2.66a3.36,3.36,0,0,0-2.45.48c3.2.55,6,.2,8.84.3a21.57,21.57,0,0,1,3.76.19c1.18.25,2.08.76,1.33,2.22-1.52,1.12-3.29.77-5,.78-16.2,0-32.39-.08-48.59.08a75.1,75.1,0,0,0-18.46,2,37.79,37.79,0,0,0-10,3.92C346.53,317.24,345.52,318,344.28,317.15Z" transform="translate(-268.96 -248.19)"/><path class="cls-5" d="M429.65,309.26c-4.73-1-9.52-.16-14.26-.48-1.16-.08-3.15.72-3.32-.71-.21-1.83,1.78-2.61,3.4-2.81,3-.35,6.06.73,9.11-.18,6.08-1.83,12.65-1.29,18.59-4a11.15,11.15,0,0,1,4.52-.59c3.79,0,7-2.53,11-2,1.9.24,2.89-1.85,3.42-3.67a46.27,46.27,0,0,1,28.07,17.37,3.1,3.1,0,0,0,.57,1.74,1.75,1.75,0,0,1-.13,2.94,2.6,2.6,0,0,1-3.46-.11,3.85,3.85,0,0,1-.79-1.07c-2.09-3.24-5.08-3.12-6.88.39-.72,1.4-1.7,2.33-3.13,1.81s-1.67-.16-1.87,1c-.06.36-.48.5-.83.61-1.13.16-1.85-.61-2.62-1.19-6.47-4.76-13.95-6.42-21.75-7.12-5.37-.48-10.76-.62-16.15-.61C431.85,310.64,430.31,310.94,429.65,309.26Z" transform="translate(-268.96 -248.19)"/><path class="cls-6" d="M444.77,292.68c-3,2.24-6.79,1.48-10,2.65-9,3.26-18.54,2.92-27.71,5-8.2,1.86-16.68,2.56-25.06,3.57-6.14.74-12.32,1.1-18.47,1.72a167,167,0,0,1-20.18,1,23.88,23.88,0,0,0-7.73.86c-1.62.51-3.44,1-5-.47a26.47,26.47,0,0,1,8.62-6.4c8.32-.25,16.64-.61,24.93-1.48,3.47-.36,6.92-1,10.47-.44,3.18.54,6.38-.4,9.3-1.27,4.5-1.34,9.09-1,13.6-1.73,3.25-.55,6.28-2.27,9.86-1.69-1.55-.64-3.78.86-4.21-1.88l17.86,0c3.38.38,6.77,0,10.16.18a7,7,0,0,1,2.9.22Z" transform="translate(-268.96 -248.19)"/><path class="cls-7" d="M474,319.17c0-1.73-1.7-2.72-2.06-4.6,1.48.14,2.44,1.12,3.59,1.67s2.14,1.18,2.53-1.08c.48-2.72,3.44-2.7,5.45-3.51,1.7-.68,2.81.61,3.45,2.18a10.79,10.79,0,0,0,.75,1.43,1.53,1.53,0,0,0,2,.82c.92-.38.73-1.11.39-1.81a2.31,2.31,0,0,1,.07-2.08c4.33,4.54,6.74,10.14,8.61,16A72.73,72.73,0,0,1,502,351.51c-.47-3.69-3.83-6-4.58-9.55-.28-1.32-.68-1.59-2.22-1.76-2.34-.26-4.7-.89-7.06-1.34s-3.34.35-3.85,2.41c-1.55-.45-1.51-1.92-1.76-3-1.36-6.11-3.62-11.77-7.95-16.44C473.94,321,473.27,320.27,474,319.17Z" transform="translate(-268.96 -248.19)"/><path class="cls-8" d="M330,392.71l.08,30.75c-1.14,1.9-3.3,2.84-4.93,3.84-2.77,1.72-3.42,5.26-6.5,6.41-.32.12,0-.12-.22.14-2.4,2.56-2.4,2.56-3.56-.64a64.92,64.92,0,0,1-1-13.85c0-2.24,0-4.47,0-6.71.72-3.27.18-6.6.52-9.91.26-2.51,1.9-4.31,2.58-6.57a1.63,1.63,0,0,1,1.82-.91c3.23.5,5.89-.67,8.33-2.64A2.09,2.09,0,0,1,330,392.71Z" transform="translate(-268.96 -248.19)"/><path class="cls-9" d="M485.41,408.33h.48c2.16-1.24,4.29-.6,4.21,1.79-.14,4.17,3.29,6.21,4.66,9.41.33.76,1.12.82,1.84.9a2.47,2.47,0,0,1,2.43,2.69c0,2.33.42,4.67.25,7a3.69,3.69,0,0,0,1.73,3.65A41.44,41.44,0,0,1,496.87,450c-1.22,1.23-2,2.81-3.71,3.67A2.76,2.76,0,0,0,492,456a3.41,3.41,0,0,1-1.78,2.26c-1.55.93-2.8.39-3.17-1.39a5.15,5.15,0,0,1-.15-2.14c1.06-4.64-.33-8.82-2.36-12.88a2.11,2.11,0,0,1-.29-1c.18-3.19-.57-6.26-1.11-9.37a180.41,180.41,0,0,0,.94-19C484,410.95,483.65,409.23,485.41,408.33Z" transform="translate(-268.96 -248.19)"/><path class="cls-10" d="M403.19,292.13c2.09.85,4.28.26,6.42.49.79.08,1.9,0,2,.93.15,1.12-1,1-1.77,1.16-5.47,1-10.92,2.53-16.44,2.85s-10.55,2.19-15.87,2.42c-5.1.22-10.2.15-15.3.66-6.52.65-13.07.89-19.61,1.32a1.92,1.92,0,0,0-1,.28c-2.38,1.81-2.14-.26-2.4-1.6a46.52,46.52,0,0,1,19.58-6.87C373.55,292,388.37,292,403.19,292.13Z" transform="translate(-268.96 -248.19)"/><path class="cls-11" d="M501,433.75c-1.86.58-2.94-.29-3.11-2.74-.14-2-.08-3.93-.11-5.9,0-.63,0-1.25,0-1.88s0-1.19-.61-1.37-.82.46-1,1-.25,1.17-.93,1.1-.54-.8-.72-1.28c-.91-2.42-1.68-4.91-4-6.44-1.53-1-1.34-2.62-1.34-4.13,0-2.2-.87-3.62-3.25-3.75,0-5.95,0-11.9,0-17.84,0-.76-.3-1.8.69-2.12.77-.24,1.24.59,1.74,1.08,1.61,1.58,3.19,3.18,4.78,4.77a4.13,4.13,0,0,1,1.38,2.56c.13,1.29-.19,2.92,2.21,1.91,1.17-.49,1,1,1,1.65a36.39,36.39,0,0,0,1.13,7.74c.1.53.18,1.2.81,1.27.83.09.94-.71,1.09-1.29a8.08,8.08,0,0,0,.23-1.87c0-5.84-.68-11.81.31-17.48.88-5,0-10.05,1.27-14.95q0,18.46-.07,36.93a13,13,0,0,1-.35,2.11c-1,1.08-.8,2.5-.76,3.73a130.81,130.81,0,0,1-.33,14.87,2.32,2.32,0,0,0,.41,1.25Z" transform="translate(-268.96 -248.19)"/><path class="cls-12" d="M344.69,475.41a9,9,0,0,1-4.37-2.14,4.25,4.25,0,0,1,2.8-2.71c7.71-3.12,15.61-5.78,24-5.57,11.31.27,22.44,1.59,32.84,6.72,3.27,1.61,5.88,4.08,9.08,5.73a2.43,2.43,0,0,1,1.22,3.43c-4.58.79-9.12-.24-13.64-.6-1.9-.15-3.77-1.51-5.59-2.44A26.39,26.39,0,0,0,380.23,475c-3.38-.18-6.7-1-10.13-1.08s-6.37.79-9.55,1.19C355.3,475.75,350,477.43,344.69,475.41Z" transform="translate(-268.96 -248.19)"/><path class="cls-13" d="M344.69,475.41a138,138,0,0,0,21.42-2.92,24.06,24.06,0,0,1,9.1.29c5.78,1.15,11.82.82,17.27,4.11s11.46,4.12,17.7,3.88c1.18-1.86,3.13-.73,4.67-1.21,1-.16,2,0,3-.1,2.47-.21,4.93.32,7.39.06,1.8-.09,3.61-.14,5.41-.08,1.71.5,3.58.14,5.22,1l.27.4a9.18,9.18,0,0,1-4,.47c-14,0-28.09.39-42.11-.15-12-.47-24.15.53-36-2.52C350.85,477.83,347.53,477.32,344.69,475.41Z" transform="translate(-268.96 -248.19)"/><path class="cls-14" d="M415,480.78h-4.86c-1-2.3-3.64-2.56-5.08-4-2.4-2.46-5.36-3.5-8.29-4.78a66.49,66.49,0,0,0-40-4.44,52.47,52.47,0,0,0-14.66,5.19,10.09,10.09,0,0,1-1.78.56c-2.76-.74-4.78-2.63-6.89-4.38a1.27,1.27,0,0,1,1-.84c5.51-.87,10.25-3.58,15-6.23,1.2-.67,2.71-.74,3.68-1.89,2.38-.19,4.52.92,6.8,1.31a57.47,57.47,0,0,0,9.59,1c5.62.91,11.23,1.86,17,1.56,3.65,2.07,8,2.07,11.77,3.83a67.39,67.39,0,0,1,11.69,7.06,12.72,12.72,0,0,0,3.21,2.07C414.93,477.42,416.2,478.58,415,480.78Z" transform="translate(-268.96 -248.19)"/><path class="cls-15" d="M484.32,432.12a6.22,6.22,0,0,1,.82,4.39,8.86,8.86,0,0,0,.33,3.38c.42,2,1.52,3.79,2.23,5.65,1.52,4,.46,8,.67,12.09a5.25,5.25,0,0,0,2.93-2.26l.08-.38c1.62-1.11,2.14-1,2.71.52A43.44,43.44,0,0,1,478.27,472c-2.07-.76-2.9-2.49-2-5.13.5-1.54.73-3.1,1.11-4.64.45-1.84.47-3.29-1.46-4.32a1.93,1.93,0,0,1-.95-2.74c1.14-1.53.94-3.17,1.08-4.82a40.86,40.86,0,0,0,6.84-16.19C483,433.3,483.2,432.33,484.32,432.12Z" transform="translate(-268.96 -248.19)"/><path class="cls-16" d="M330,392.71c-2.8,2-6.45,2.68-8.78,5.49-.73.88-1.37.6-1.81-.37-.23-.52-.08-1.46-1-1.32-.74.11-.54,1-.86,1.53-2.54,3.78-2.69,8-2.64,12.36a2.19,2.19,0,0,1-1.11,2.26,18.45,18.45,0,0,1-.42-5.6c0-9.67,0-19.34,0-29,1.57,1.12.87,2.79,1,4.24s-.18,2.95.94,4.09c1,1,2,1.78,2.92-.1.32-.66.75-1.45,1.57-1.23,2.69.73,4.32-1.26,6.32-2.3.55-.29,1-.73,1.56-1.05,1.51-.9,2.37-.59,2.36,1.31C330.08,386.24,330.07,389.48,330,392.71Z" transform="translate(-268.96 -248.19)"/><path class="cls-17" d="M314.91,433.22l1.72,2.09c.57-1.08-.56-1.74-.36-2.62s.19-1.74,1-2.08.82.65,1.11,1.11.65.61,1.11.28a1.1,1.1,0,0,0,.47-1.41c-.93-2-.13-2.56,1.79-2.6.89,0,2-.46,2.28-1.22,1-3.12,3.72-2.85,6.09-3.31a2.83,2.83,0,0,0,1,2.18c2.17,1.17,1.09,3.38,1.63,5.07a6.49,6.49,0,0,1-.68,4.65,2,2,0,0,1-2.38,1.22,5.58,5.58,0,0,0-4.39.73c-2.47,1.33-5.51,1.66-7.31,4.16-.48.56-1,1-1.71.35C315.75,439,314.79,436.17,314.91,433.22Z" transform="translate(-268.96 -248.19)"/><path class="cls-18" d="M477.13,451a3.22,3.22,0,0,1-.18,2.6c-.62,1.65-1.57,3,1.21,3.6.77.16,1.25,1.75,1,2.6-.65,2.27-.06,4.71-1.32,6.91a4.67,4.67,0,0,0,.43,5.27,31,31,0,0,1-9.61,4.51,1.43,1.43,0,0,1-1.81-.3c-.71-1.76.88-2.12,1.8-2.77a4.46,4.46,0,0,0-.31-7.73c-1.78-1-1.8-2.35,0-3.35.61-.34,1.39-.39,1.78-1.38-1.1-.48-2.78-.12-3.16-1.78.53-1.67,8.07-8.21,9.68-8.38A.91.91,0,0,1,477.13,451Z" transform="translate(-268.96 -248.19)"/><path class="cls-11" d="M316.24,441.82l.91-1c1-.78,1.67-.1,2.19.66,1.1,1.59,2.42,1.57,4,.73a15.47,15.47,0,0,1,4.25-1.59c1.71-.36,3.27-.87,4-2.73a1.15,1.15,0,0,1,1.13-.6c2.55,1.49,2.59,4.13,3,6.59a8.38,8.38,0,0,1-5.93,5.7,16.07,16.07,0,0,0-5.83,3.34c-1.26,1-2.38,1.2-3.45-.2C318.35,449.32,317.32,445.56,316.24,441.82Z" transform="translate(-268.96 -248.19)"/><path class="cls-19" d="M352.84,460.8c.24,1.11,1.35,2.77-1.31,2-.39-.11-1.06-.13-1.25.1-2.24,2.73-5.85,2.53-8.62,4.07-.47.26-1.18.34-1.42.72-1.84,3-4.3,2.19-6.81,1.18a9.54,9.54,0,0,1-3.33-3.22c1.5-2.24,4.21-2.46,6.33-3.63,2.86-1.57,5.89-2.77,8.05-5.35a1.8,1.8,0,0,1,1-.45c2.51.45,4.51,2,6.78,3A1.08,1.08,0,0,1,352.84,460.8Z" transform="translate(-268.96 -248.19)"/><path class="cls-20" d="M345.28,457c-.11.93-1.68,2.29-3.73,3.84-2.77,2.1-6.11,2.94-9.08,4.57a3.46,3.46,0,0,1-2.36.27,15.87,15.87,0,0,1-4.25-4.34c.67-1.44,2-1.9,3.38-2.34a73.88,73.88,0,0,0,7-3.3c1.77-.8,2.08-2.85,3.52-3.93C342.48,451.94,345.35,454.67,345.28,457Z" transform="translate(-268.96 -248.19)"/><path class="cls-21" d="M320.45,452.67c.18,0,.42.14.52.07,4.32-3.25,10.37-3.86,13.55-8.85,2.16-.39,2.19,1.54,2.94,2.68,1.13,3.49.33,4.65-2.62,6.57-2.76,1.8-6.16,2.7-8.09,5.89-1.36,2.25-2.18-.25-3.15-.94A13.26,13.26,0,0,1,320.45,452.67Z" transform="translate(-268.96 -248.19)"/><path class="cls-22" d="M454.68,479.8a43.07,43.07,0,0,1-12.07.9c-4.11-.55-6.21-3.64-8.28-6.68-1.65-2.41-3.91-4.22-5.81-6.37-1-1.12-2-2.24-.42-3.66a7.55,7.55,0,0,1,2.59-.24c1,0,2,0,3,.07,3.07,2.82,6.62,5.09,8.93,8.77,1.13,1.8,3.07,3,4.19,5,.75,1.36,3,1.35,4.74.78C452.73,478.51,454.07,478.34,454.68,479.8Z" transform="translate(-268.96 -248.19)"/><path class="cls-18" d="M467,475.93l1.7.57a20.38,20.38,0,0,1-7.53,2.21c-1,.22-2.13.2-3.19.35a5.14,5.14,0,0,1-5.23-2.18c-2.51-3.05-4.35-6.58-7.05-9.46a3.29,3.29,0,0,1-.74-4.16c2.07-1.73,4.48-.95,6.78-.93,1.33.39,2.28,1.18,2.09,2.67-.27,2.09.85,3.39,2.34,4.48,1.89,1.38,3.57,2.74,4.12,5.31.43,2,2.34,1.52,3.81,1.06C465.07,475.55,466,474.77,467,475.93Z" transform="translate(-268.96 -248.19)"/><path class="cls-23" d="M323.61,458.09c1.1.82,1.8,1.14,2.52-.64a5.78,5.78,0,0,1,3.64-3c2.26-.69,3.7-2.63,6.06-3.3,2.08-.59.23-2.62.32-4,2.58.21,4.12,2.24,3.74,4.93,1.14,2-.3,3.47-1.64,4.14-3.72,1.86-7.35,4-11.35,5.23a2.84,2.84,0,0,1-1.06-.1A8.74,8.74,0,0,1,323.61,458.09Z" transform="translate(-268.96 -248.19)"/><path class="cls-24" d="M445.34,464.12c2.48,3.55,4.66,7.31,7.57,10.55.12.13.36.19.41.33,1.37,3.85,4.6,3.77,7.82,3.71a17,17,0,0,1-6.46,1.09l-3.93-.1c-5-3.07-7.13-8.51-10.53-12.89-1.09-1.41-1-2.81.72-3.82C442.52,462.94,444.26,462.22,445.34,464.12Z" transform="translate(-268.96 -248.19)"/><path class="cls-25" d="M428,464.58c.65,2.1,2.57,3.15,3.89,4.69s2.6,3.69,4,4.82a36.18,36.18,0,0,1,4.91,5.48,7,7,0,0,0,1.77,1.14l-6.46.15,0-.2c-2.39-.21-3.71-1.68-4.77-3.7a16.8,16.8,0,0,0-5.38-6.52,15.83,15.83,0,0,1-3.39-3.41c-1-1.24-1.18-2.43.6-3.2C424.81,463.94,426.59,463.15,428,464.58Z" transform="translate(-268.96 -248.19)"/><path class="cls-9" d="M501.5,432.64c-.41-.36-.85-.78-.77-1.35.9-6.59-.7-13.22.37-19.81a5.69,5.69,0,0,1,.38-.94c.81.68.56,1.54.7,2.24C502.39,419.42,501.82,426,501.5,432.64Z" transform="translate(-268.96 -248.19)"/><path class="cls-15" d="M491.3,455.38c-.82-1.44-.31-2.67,1.12-3,1.79-.38,3-1.58,4.45-2.41l-2.2,4.5C493.43,454.34,492.1,453.84,491.3,455.38Z" transform="translate(-268.96 -248.19)"/><path class="cls-10" d="M434.1,292.55c-4.35-.14-8.73.52-13.06-.4C425.4,292.13,429.77,291.75,434.1,292.55Z" transform="translate(-268.96 -248.19)"/><path class="cls-9" d="M491.3,455.38c1-2.68,1.32-2.77,3.37-.88l-.58,1Z" transform="translate(-268.96 -248.19)"/><path class="cls-1" d="M445.34,464.12l-4.87,0a4.17,4.17,0,0,1-.84.56c-3.07.79-6-.65-9.1-.35-10.51.63-21,.47-31.56.57-8.82.08-17.61-1-26.43-.57a11.49,11.49,0,0,1-3.42-.71,52.9,52.9,0,0,1-16.27-2.79,44.83,44.83,0,0,1-7.56-3.81L339.9,452l-3.74-4.93a7.11,7.11,0,0,0-1.63-3.23l-2.16-6.51c-1.5-1.77-.42-4-1.11-5.95l-.18-5.79c-.83-18.55-.51-37.11-.43-55.66,0-8.55-.18-17.11.58-25.65.95-10.68,4.49-20.14,13.05-27.17,9-6.46,19.46-7.57,30-7.72,18.45-.25,36.9-.14,55.34-.18,6.37.31,12.74.07,19.11.58,9.33.74,18,2.87,25.21,9.33,6.22,6.06,9.37,13.57,10.35,22.09.95,3.19.05,6.59,1.08,9.77a95.61,95.61,0,0,1,0,14q0,21.66,0,43.31c-.29,6.61.13,13.23-.58,19.83a25.28,25.28,0,0,1-.51,4A39.07,39.07,0,0,1,477.13,451a52.56,52.56,0,0,1-9.69,8c-.35.83-.63,1.72-1.59,2.06-4.36,1.54-8.58,3.9-13.49,2.4C450,463.72,447.59,462.9,445.34,464.12Z" transform="translate(-268.96 -248.19)"/><path class="cls-15" d="M485.42,365q0-7,0-14A41.94,41.94,0,0,1,485.42,365Z" transform="translate(-268.96 -248.19)"/><path class="cls-19" d="M425.32,480.77h-7.57c-1.52-.59-1.91-2.4-3.15-3.13-5.51-3.24-10.25-7.75-16.4-9.93a4.22,4.22,0,0,1-1.88-1c-.78-.9-1.34-1.85.39-2.38h10.52a33.08,33.08,0,0,1,8.44,5.13c3,2.42,6.09,4.75,9,7.27A2.85,2.85,0,0,1,425.32,480.77Z" transform="translate(-268.96 -248.19)"/><path class="cls-26" d="M425.32,480.77c-.49-2.6-2.58-4.09-4.41-5.45-3.51-2.61-6.6-5.79-10.49-7.91a4.31,4.31,0,0,1-2.39-2.77c2.22-.72,4.51-.17,6.75-.34,4.4,1.26,7.57,4.28,10.56,7.51a10,10,0,0,0,3.32,2.59c2.67,1.2,3.66,4.58,2.07,6.34Z" transform="translate(-268.96 -248.19)"/><path class="cls-27" d="M430.75,480.74c.68-1.79-.65-2.31-1.75-3.32-3.36-3.09-6.25-6.68-9.88-9.51a14.78,14.78,0,0,1-3.52-3.27,15.38,15.38,0,0,1,7,0c.88,2.28,2.83,3.62,4.57,5.12,1.56,1.34,3.3,2.5,4.09,4.49.55,1.4,2,.85,2.55,1.23-.77,2.62,1,3.82,2.28,5.2Z" transform="translate(-268.96 -248.19)"/><path class="cls-28" d="M396.14,464.62a2.94,2.94,0,0,0,2,1.71A47.05,47.05,0,0,1,410.33,473c2.74,2.08,6.92,3.35,7.42,7.76H415a6.61,6.61,0,0,0-3.45-3.54,39.55,39.55,0,0,1-6.53-4.25c-4.64-3.68-10.13-5.32-15.67-6.87a4.27,4.27,0,0,1-2.47-1.51A27.83,27.83,0,0,1,396.14,464.62Z" transform="translate(-268.96 -248.19)"/><path class="cls-12" d="M396.14,464.62l-9.21,0-14,0a5.47,5.47,0,0,1-3.81-1c18.75.94,37.5.32,56.25.41,1.79,0,3.59.05,5.38.08q.61.33-.07.47l-2.66,0-5.4,0-7,0H408Z" transform="translate(-268.96 -248.19)"/><path class="cls-24" d="M331.27,431.42a23.9,23.9,0,0,1,1.1,5.95c.31,2.61.07,4.49-3.47,4.36-2.31-.09-4.46,1.27-6.52,2.38s-3.74.39-4.23-1.88a1.75,1.75,0,0,0-1-1.46c.38-.91.8-1.79,1.12-2.72s.88-1.63,1.93-.8c.82.65,1.45.14,2.21-.12,2.58-.89,4.77-3.38,8-1.93.68.31.74-.59.78-1.09C331.24,433.22,331.24,432.32,331.27,431.42Z" transform="translate(-268.96 -248.19)"/><path class="cls-29" d="M452.36,463.49A66.11,66.11,0,0,0,467.44,459a2.57,2.57,0,0,0,2.8-.09c.81-.4,1.64-1.06,2.31.08a2.35,2.35,0,0,1-.42,2.75c-1,1.29-2.55,1.51-4,2.07.52,1,1.35.64,2,.77s1.38.18,1.56.86c.49,1.83,0,3.73.43,5.6.53,2.52-1.54,3.09-3.3,3.82a18.53,18.53,0,0,0-1.88,1c-2.11,1.27-4.28,2.18-6.86,1.61-1.18-.26-1.92-.79-1.62-2,.62-2.4-1-3.68-2.58-4.5-2.36-1.19-2.94-3.82-4.92-5.28-.81-.59,0-1.05.7-1.18S453,464.41,452.36,463.49Z" transform="translate(-268.96 -248.19)"/><path class="cls-5" d="M439.91,464.07h.56c.16,2.15,1.85,3.47,3.05,4.89,1.9,2.25,2,6.13,5.83,6.85.15,0,1.81,2.23,1.4,3.88-.89.07-1.79.11-2.68.22-1.08.13-2.4-.22-2.58-1-.61-2.73-3.54-3.58-4.46-6-.66-1.73-2.19-2.77-3.49-4s-3-2.34-3.55-4.29C435.91,463.81,438,464.75,439.91,464.07Z" transform="translate(-268.96 -248.19)"/><path class="cls-25" d="M439.91,464.07c-1.91.89-3.94.34-5.91.52l-3.31,0q0-.24.07-.47Z" transform="translate(-268.96 -248.19)"/><path class="cls-29" d="M378.79,425.1a42.59,42.59,0,0,1-14-16.41c-2.29-4.47-4.17-9.14-4.46-14.26a77.59,77.59,0,0,1-.46-8.31c0-2.61.89-3.4,3.33-4.06,3.6-1,7.38.19,10.95-1.08.81-.29,1.51.45,1.92,1.21.84,1.57,1.41,3.45.54,4.91-1.06,1.8-.34,2.6.92,3.52a10,10,0,0,1,1.07,3C382,406,390,413.52,402.41,416.42a29.92,29.92,0,0,0,5.38.33c1.23.06,2.55-.17,3.58.82.8,2.1-.69,2.83-2.1,3.64a11.29,11.29,0,0,0,4.4,2.22c1.89.51,4.54,4.46,4.44,6.28a1.66,1.66,0,0,1-.72,1.36c.06,0-.37.08,0,.09,2,0,1.86,1.23,1.47,2.59-.92.82-2.05.46-3.1.59-3.64.37-7.27.77-10.83-.6-1.57-.6-3.31-.23-5-.57-3-.6-5.9-1.24-8.45-3a3.16,3.16,0,0,0-2-.75,10.39,10.39,0,0,1-8.56-3.65C380.19,425,379.31,425.87,378.79,425.1Z" transform="translate(-268.96 -248.19)"/><path class="cls-4" d="M450.75,363.93l1,1.71a6.64,6.64,0,0,0,1.67,4.27l.56,1.09c-1.17,1.27-2.37,1.09-3.51,0-1.71-1.65-3.62-2.27-5.89-1.25-.16.07-.41.17-.52.09-2.66-1.85-6.62-1.41-8.44-4.68a3.39,3.39,0,0,0-2.38-2,3.2,3.2,0,0,1-2.9-2.6c.82,1.25.32,2.28-1.16,3-3.1-.35-5.13-2.54-7.41-4.29-.66-2.13-2-3.32-4.35-3.15a2,2,0,0,1-1.91-.78,1.15,1.15,0,0,0-1.15-.58c-3,1-6-1.06-9,.14a4.36,4.36,0,0,1-2.14.11c-1.3-.15-2.6-1.69-3.73.8-.44,1-3,.34-4.63.54-1,.13-1.5.14-1.45,1.34a1.4,1.4,0,0,1-1.55,1.53c-2.29-.51-5-.37-6.26-3a7.06,7.06,0,0,0-2.62-2.67c-.79-.52-1.51-1.07-1.35-2.13a1.67,1.67,0,0,1,1.71-1.54,2,2,0,0,0-2,1.61c-.36,1.64-1.67,1.68-3,1.61a1.93,1.93,0,0,1-1.84-1.34c-.31-.85.32-1.32.79-1.85,1.55-1.75,3.89-2.55,5.36-4.39a40.33,40.33,0,0,1,19.84-6.65c3.63-.18,7.21-.85,10.9-.42,13.25,1.53,24,7.59,32.5,17.75a6.55,6.55,0,0,1,.64,1.18C447.68,359.7,448.5,362.28,450.75,363.93Z" transform="translate(-268.96 -248.19)"/><path class="cls-30" d="M418.86,433.75c-.82-3-3.5-1.25-5.27-1.89.17-.34.2-.55.32-.63.92-.56,3,.33,2.81-1.25-.23-1.85-.92-4.46-2.87-4.87-3.38-.72-5.28-4-8.83-4.46,2.4-.24,4.58-.77,6.24-2.52.3-1.47,1.6-1.62,2.68-1.83a31.21,31.21,0,0,0,16.18-8.93c.68-.68,1.31-1.52,2.43-1.49a7.1,7.1,0,0,0,3.7-.21c1.46-.58,2.29,0,2.86,1.5,1.07,2.74,2.75,4.72,6.1,4.74,2,0,2.74,1.62,1.38,3.07a7,7,0,0,0-1.25,2.54h0a3.39,3.39,0,0,0-2.66,2.79A43.07,43.07,0,0,1,418.86,433.75Z" transform="translate(-268.96 -248.19)"/><path class="cls-31" d="M429.06,363c1.14-2-.19-3.73-.92-5.54.27,0,.51,0,.58.05a13.91,13.91,0,0,0,6.94,5.31c.91.28,2.07.92,1.6,2.4-.12.37.13.88.48.82a5.22,5.22,0,0,1,5.35,2.3c.37.47,1,.13,1.48-.15,2.37-1.37,4.42-.18,6.14,1.17a6.26,6.26,0,0,0,3.23,1.65c2.63,8.15,3.6,16.41,1.59,24.86a7,7,0,0,0-1.14,1.11c-1.47,1.4-3.29,1-3.44-1-.14-1.75-1-2.28-2.24-3.31-3.26-2.76-7.43-5.06-8.36-9.65-.45-2.23-1.9-4.11-1.84-6.45,0-1.15-1.11-1.24-1.91-1.59-2.72-3.23-4.52-7.14-7.5-10.19A1.32,1.32,0,0,1,429.06,363Z" transform="translate(-268.96 -248.19)"/><path class="cls-32" d="M469.67,336.33a11.42,11.42,0,0,1-11.25,11.41A11.62,11.62,0,0,1,447,336.2,11.42,11.42,0,0,1,458.44,325,11.22,11.22,0,0,1,469.67,336.33Z" transform="translate(-268.96 -248.19)"/><path class="cls-33" d="M382.56,345.52c.53.62.91,1.08-.29,1.52a8.85,8.85,0,0,0-4,2.64c-.45.56-1.67,1.2-.74,1.88a2,2,0,0,0,2.83-.53c1.71-2.44,4.25-3.2,6.68-2.14.6.26,1.25.52,1.09,1.31-.13.62-.76.68-1.3.76-1.31.19-2.69-.25-4,.37,3.9,4.8,6.27,6.46,9.41,6.61.22-.83-.44-1.1-.94-1.43-1.18-.78-.82-1.73-.17-2.54a1.48,1.48,0,0,1,2.53-.08c1.49,2.13,3.45,1.33,5.42,1.27-.08-1.57-1.68-1.58-2.47-2.74,2.24-.76,4.13.25,5.85.8,3.53,1.14,7,.65,10.47.25,1.34-.15,3-1.23,3.7,1.08.31,1,1.41.54,2.09.86,1.53.74,3.73.69,3.92,3.11-1.24,1.3-2.52.43-3.73,0a32.54,32.54,0,0,0-20.18-.66c-3.75,1-6.74,3.37-9.9,5.43-.82.53-1.47,1.36-2.55,1.43a10,10,0,0,0-8.23.81c-3.19,1.77-6.77,1.32-10.09,2.28a2.16,2.16,0,0,1-2.64-1.36c-.42-1,.12-1.78.78-2.62a25,25,0,0,0,3.5-6.43A39.6,39.6,0,0,1,382.56,345.52Z" transform="translate(-268.96 -248.19)"/><path class="cls-34" d="M437.25,374.25c2-.57,1.83,1.15,2.05,2.16s.27,2.32,1.48,3c.27.15.62.56.59.82-.54,5.8,4.81,7.58,7.56,11.13a1,1,0,0,0,1.45.1c2.3-2.09,1.84,0,2,1.27s-.52,2.67.26,4.16c.93-.48,1.63-1.82,2.91-1a21.51,21.51,0,0,1-2.16,7.56c-1.65,2-2,4.75-3.72,6.76-.45.53-.56,1.4-1.52,1.15a1.78,1.78,0,0,1-1.43-1.78c.36-4.3-2.77-5.77-5.76-7.43-1.57-.87-2.81-2.08-2.43-4.07.29-1.5-.92-2.5-1-3.85.75-5.92.9-11.8-.94-17.58A1.84,1.84,0,0,1,437.25,374.25Z" transform="translate(-268.96 -248.19)"/><path class="cls-24" d="M369.57,357.4c.43.71.87,1.4,0,2.12a3.24,3.24,0,0,0-1,2.93c.12,1.22,0,1.89-1.39,1.95a1,1,0,0,0-1,1c.06.76.65,1,1.31,1.11a2.08,2.08,0,0,0,.8,0c4.26-1.12,8.77-1.45,12.66-3.67,2.27-1.29,3.66-.5,5,1.26a1.43,1.43,0,0,1-.1,1.76c-1.88,2.29-3.18,5-5.29,7.14-.6.4-1.49.33-1.93.9-2.35,3.07-5.5,2.43-8.62,1.95a15.14,15.14,0,0,0-4-.13c-3.77.41-4.21,0-4-3.84A35.79,35.79,0,0,1,369.57,357.4Z" transform="translate(-268.96 -248.19)"/><path class="cls-17" d="M362,371.91c.1,2.5,1.55,3,3.7,2.52a14.72,14.72,0,0,1,5.83.31c2.72.48,5.11,0,7-2.18a6.23,6.23,0,0,1,1.56-1,2.11,2.11,0,0,1,.24,2.5,38.36,38.36,0,0,0-2.45,14.77c0,1,0,2.22-1.31,2.69-1.72-1.38-2.52-3.72-1.51-5.11.64-.87,1-1.39.77-2.29-.32-1.55-1-2.51-2.79-1.5a4.7,4.7,0,0,1-3.39.42,10.56,10.56,0,0,0-2.14-.17c-6.45,0-7.09.61-7.1,6.94,0,1.52,0,3-.06,4.57A40.42,40.42,0,0,1,362,371.91Z" transform="translate(-268.96 -248.19)"/><path class="cls-35" d="M438.66,394.74a4.43,4.43,0,0,1,.75,2.81,3.39,3.39,0,0,0,1.82,3.13c2.06.84,3.49,2.45,5.24,3.64s3,2.21,1.63,4.48a1.41,1.41,0,0,0,.38,1.9,22.82,22.82,0,0,0,3.57-6.75c.26-1,.47-1.37,1.32-.52a38.83,38.83,0,0,1-8,14.11c-.47-1.22-1.42-2.53.79-3.1.39-.1.28-.59.1-.92s-.5-.71-.83-.44c-3.12,2.6-4-1.17-5.55-2.24-1.07-.75-3.3-1.85-1.94-4.83-2,1.88-3.58,2-5.18.64-.95-.93-.45-1.85.09-2.68a34.49,34.49,0,0,0,3.9-7.68C437,395.44,437.5,394.6,438.66,394.74Z" transform="translate(-268.96 -248.19)"/><path class="cls-16" d="M378.79,425.1c.47-.22,1.58-.44.95-1s-1-.72-.23-1.23c.55-.37,1.09,0,1.25.59a6.1,6.1,0,0,0,5.38,4.49c.08,0,.18.13.24.11,3.12-1,5.63.56,8.1,2,4.44,2.62,9.86,1.24,14.38,3.66,2.1,1.12,4.6.31,6.91.56-7.74,2-15.28.73-22.69-1.57C387.84,431.16,382.86,428.93,378.79,425.1Z" transform="translate(-268.96 -248.19)"/><path class="cls-31" d="M450.75,363.93c-1,.06-2.82-1.4-3.39-2.94a33.92,33.92,0,0,1-.92-3.61A21.45,21.45,0,0,1,450.75,363.93Z" transform="translate(-268.96 -248.19)"/><path class="cls-35" d="M442.68,420.33c-.31-2.07.19-3.37,2.66-2.79A10.11,10.11,0,0,1,442.68,420.33Z" transform="translate(-268.96 -248.19)"/><path class="cls-31" d="M453.38,369.92c-1.6-1-2.38-2.35-1.67-4.27A14.13,14.13,0,0,1,453.38,369.92Z" transform="translate(-268.96 -248.19)"/><path class="cls-1" d="M438.66,394.74a43.43,43.43,0,0,1-5.92,11.9c-5.22,5.68-11.36,9.78-19.1,11.14-.79.14-1.59.24-2.38.36-6.16.22-12.16-.34-17.7-3.36A31.41,31.41,0,0,1,377.2,393.6c-.16-.69-.41-1.36-.62-2-.32-6.92.25-13.67,3.52-20a48.56,48.56,0,0,1,5.8-7.47c10.24-9.38,21.83-11.34,34.69-6.28.66.26,1.35.45,2,.67l6.45,4.48a44.06,44.06,0,0,1,8.19,11.25,41.26,41.26,0,0,1,2.19,14.95C439.34,391.1,438.71,392.87,438.66,394.74Z" transform="translate(-268.96 -248.19)"/></svg>